<svg width="28" height="26" viewBox="0 0 28 26" fill="none" xmlns="http://www.w3.org/2000/svg">
<path d="M22.844 0.0629997L21.875 0.342999L14.187 2.531L13.25 2.813L13.438 3.5L6.218 1.406L5.25 1.125L4.969 2.094L2.156 11.656C1.816 12.84 1.609 14.254 2 15.625C2.316 16.735 3.11 17.801 4.344 18.438L3.437 21.718L0.562 20.875L0 22.813L7.688 25.031L8.25 23.094L5.375 22.25L6.281 19C6.90745 19.0533 7.53818 18.9783 8.13465 18.7795C8.73111 18.5808 9.28077 18.2624 9.75 17.844C10.813 16.891 11.41 15.621 11.75 14.437L14.219 6.187L16.25 13.407V13.437C16.59 14.621 17.188 15.891 18.25 16.844C19.117 17.621 20.328 18.09 21.719 17.969L22.625 21.25L19.75 22.094L20.313 24.031L28 21.813L27.437 19.875L24.562 20.719L23.625 17.437C24.859 16.801 25.652 15.734 25.969 14.625C26.359 13.254 26.184 11.84 25.844 10.656L23.125 1.031L22.844 0.0629997ZM21.5 2.53L22.75 7H16.5L15.719 4.187L21.5 2.53ZM6.625 3.625L12.375 5.25L11.562 8H5.312L6.625 3.625ZM17.063 9H23.313L23.938 11.219C24.207 12.149 24.301 13.254 24.063 14.094C23.824 14.934 23.371 15.524 22.156 15.875C20.941 16.227 20.242 15.957 19.594 15.375C18.945 14.793 18.426 13.805 18.156 12.875L17.063 9ZM4.719 10H10.969L9.844 13.875H9.813C9.543 14.805 9.055 15.793 8.406 16.375C7.758 16.957 7.059 17.227 5.844 16.875C4.629 16.523 4.176 15.934 3.937 15.094C3.699 14.254 3.793 13.148 4.062 12.219L4.719 10Z" fill="black"/>
</svg>
