<svg width="640" height="512" viewBox="0 0 640 512" fill="none" xmlns="http://www.w3.org/2000/svg">
<g clip-path="url(#clip0_3_4)">
<path d="M464.46 246.68L352 179.2V128H400C408.84 128 416 120.84 416 112V80C416 71.16 408.84 64 400 64H352V16C352 7.16 344.84 0 336 0H304C295.16 0 288 7.16 288 16V64H240C231.16 64 224 71.16 224 80V112C224 120.84 231.16 128 240 128H288V179.2L175.54 246.68C170.801 249.522 166.878 253.544 164.155 258.353C161.431 263.161 160 268.594 160 274.12V512H256V416C256 380.65 284.65 352 320 352C355.35 352 384 380.65 384 416V512H480V274.12C480 262.88 474.1 252.46 464.46 246.68ZM0 395.96V496C0 504.84 7.16 512 16 512H128V320L19.39 366.54C13.6354 369.011 8.73145 373.114 5.28511 378.344C1.83877 383.573 0.00127026 389.697 0 395.96ZM620.61 366.54L512 320V512H624C632.84 512 640 504.84 640 496V395.96C640 383.16 632.37 371.59 620.61 366.54Z" fill="black"/>
</g>
<defs>
<clipPath id="clip0_3_4">
<rect width="640" height="512" fill="white"/>
</clipPath>
</defs>
</svg>
