<svg width="256" height="256" viewBox="0 0 256 256" fill="none" xmlns="http://www.w3.org/2000/svg">
<g clip-path="url(#clip0_4_6)">
<path d="M92.49 187.5C93.6063 188.616 94.4917 189.941 95.0958 191.4C95.6999 192.858 96.0108 194.421 96.0108 196C96.0108 197.579 95.6999 199.142 95.0958 200.6C94.4917 202.059 93.6063 203.384 92.49 204.5C91.3738 205.616 90.0486 206.502 88.5902 207.106C87.1318 207.71 85.5686 208.021 83.99 208.021C82.4114 208.021 80.8483 207.71 79.3899 207.106C77.9314 206.502 76.6063 205.616 75.49 204.5L51.49 180.5C49.2357 178.246 47.9692 175.188 47.9692 172C47.9692 168.812 49.2357 165.754 51.49 163.5C53.7444 161.246 56.8019 159.979 59.99 159.979C63.1782 159.979 66.2357 161.246 68.49 163.5L92.49 187.5ZM112 120C107.253 120 102.613 121.408 98.6663 124.045C94.7196 126.682 91.6434 130.43 89.8269 134.816C88.0104 139.201 87.5351 144.027 88.4612 148.682C89.3872 153.338 91.673 157.614 95.0295 160.971C98.3859 164.327 102.662 166.613 107.318 167.539C111.973 168.465 116.799 167.99 121.184 166.173C125.57 164.357 129.318 161.28 131.955 157.334C134.592 153.387 136 148.747 136 144C136 137.635 133.471 131.53 128.971 127.029C124.47 122.529 118.365 120 112 120ZM252.49 60.48C250.674 62.2991 248.322 63.4869 245.78 63.8686C243.238 64.2502 240.64 63.8055 238.37 62.6L182 119C184.61 124.96 186.412 131.243 187.36 137.68C189.87 155.26 185.16 171.03 174.09 182.1C169.609 186.574 164.254 190.076 158.36 192.39C157.621 192.759 157.003 193.331 156.579 194.04C156.156 194.749 155.944 195.565 155.97 196.39C155.44 212 149.81 225.61 139.69 235.73C129 246.37 114.5 252 98.13 252C94.5262 251.993 90.9273 251.733 87.36 251.22C67.89 248.44 48.63 238.37 33.13 222.87C17.63 207.37 7.56003 188.11 4.78003 168.64C1.78003 147.89 7.34003 129.3 20.33 116.31C30.45 106.19 44.06 100.56 59.67 100C60.4955 100.026 61.311 99.8141 62.0199 99.3905C62.7288 98.9669 63.3015 98.349 63.67 97.61C65.9783 91.729 69.4706 86.3852 73.93 81.91C85 70.84 100.77 66.13 118.35 68.64C124.777 69.5903 131.049 71.3928 137 74L193.4 17.63C192.043 15.09 191.644 12.1464 192.277 9.33679C192.91 6.52717 194.532 4.03889 196.848 2.32624C199.163 0.613595 202.017 -0.209173 204.889 0.00815366C207.761 0.22548 210.459 1.4684 212.49 3.51L252.49 43.51C254.74 45.7604 256.004 48.8125 256.004 51.995C256.004 55.1775 254.74 58.2296 252.49 60.48ZM221 46L210 35L191 54L202 65L221 46ZM146.69 109.28C135.53 98.09 121.39 92 109.34 92C102.05 92 95.53 94.21 90.9 98.85C88.7594 101.025 87.0912 103.62 86 106.47C83.9165 111.56 80.3913 115.931 75.8576 119.046C71.3238 122.16 65.9791 123.882 60.48 124C53.91 124.22 44.55 126 37.3 133.26C29.78 140.78 26.67 152.13 28.54 165.26C30.59 179.63 38.25 194.07 50.1 205.92C61.95 217.77 76.39 225.43 90.76 227.48C103.85 229.35 115.2 226.24 122.76 218.72C130.01 211.47 131.76 202.11 132.02 195.54C132.133 190.04 133.85 184.692 136.961 180.155C140.071 175.618 144.44 172.088 149.53 170C152.373 168.893 154.957 167.212 157.12 165.06C169.43 152.79 164.67 127.23 146.72 109.28H146.69ZM169 98.07L185 82L174 71L157.93 87C159.93 88.67 161.83 90.42 163.69 92.27C165.55 94.12 167.29 96.09 169 98.07Z" fill="black"/>
</g>
<defs>
<clipPath id="clip0_4_6">
<rect width="256" height="256" fill="white"/>
</clipPath>
</defs>
</svg>
