<svg width="576" height="512" viewBox="0 0 576 512" fill="none" xmlns="http://www.w3.org/2000/svg">
<g clip-path="url(#clip0_5_12)">
<path d="M560 64C568.84 64 576 56.84 576 48V16C576 7.16 568.84 0 560 0H16C7.16 0 0 7.16 0 16V48C0 56.84 7.16 64 16 64H31.98V448H16C7.16 448 0 455.16 0 464V496C0 504.84 7.16 512 16 512H256V432C256 423.2 263.2 416 272 416H304C312.8 416 320 423.2 320 432V512H560C568.84 512 576 504.84 576 496V464C576 455.16 568.84 448 560 448H544V64H560ZM256 108.8C256 102.4 262.4 96 268.8 96H307.2C313.6 96 320 102.4 320 108.8V147.2C320 153.6 313.6 160 307.2 160H268.8C262.4 160 256 153.6 256 147.2V108.8ZM256 204.8C256 198.4 262.4 192 268.8 192H307.2C313.6 192 320 198.4 320 204.8V243.2C320 249.6 313.6 256 307.2 256H268.8C262.4 256 256 249.6 256 243.2V204.8ZM128 108.8C128 102.4 134.4 96 140.8 96H179.2C185.6 96 192 102.4 192 108.8V147.2C192 153.6 185.6 160 179.2 160H140.8C134.4 160 128 153.6 128 147.2V108.8ZM179.2 256H140.8C134.4 256 128 249.6 128 243.2V204.8C128 198.4 134.4 192 140.8 192H179.2C185.6 192 192 198.4 192 204.8V243.2C192 249.6 185.6 256 179.2 256ZM192 384C192 330.98 234.98 288 288 288C341.02 288 384 330.98 384 384H192ZM448 243.2C448 249.6 441.6 256 435.2 256H396.8C390.4 256 384 249.6 384 243.2V204.8C384 198.4 390.4 192 396.8 192H435.2C441.6 192 448 198.4 448 204.8V243.2ZM448 147.2C448 153.6 441.6 160 435.2 160H396.8C390.4 160 384 153.6 384 147.2V108.8C384 102.4 390.4 96 396.8 96H435.2C441.6 96 448 102.4 448 108.8V147.2Z" fill="black"/>
</g>
<defs>
<clipPath id="clip0_5_12">
<rect width="576" height="512" fill="white"/>
</clipPath>
</defs>
</svg>
